<?xml version="1.0" standalone="no"?>
<!DOCTYPE svg PUBLIC "-//W3C//DTD SVG 20010904//EN"
 "http://www.w3.org/TR/2001/REC-SVG-20010904/DTD/svg10.dtd">
<svg version="1.0" xmlns="http://www.w3.org/2000/svg"
 width="58.000000pt" height="58.000000pt" viewBox="0 0 58.000000 58.000000"
 preserveAspectRatio="xMidYMid meet">

<g transform="translate(0.000000,58.000000) scale(0.100000,-0.100000)"
fill="#000000" stroke="none">
<path d="M20 560 c-19 -19 -20 -33 -20 -225 0 -174 2 -205 15 -205 12 0 15 32
17 203 l3 202 240 3 239 2 -34 -35 -33 -35 -171 -2 -171 -3 -3 -122 c-2 -105
0 -123 13 -123 13 0 15 18 15 110 l0 110 142 0 142 0 -29 -30 c-26 -27 -35
-30 -91 -30 -34 0 -69 -3 -78 -6 -21 -8 -22 -64 -1 -64 8 0 15 6 15 14 0 9 14
15 40 18 22 2 40 1 40 -2 0 -3 -65 -70 -145 -150 -104 -104 -145 -151 -143
-165 3 -19 12 -20 221 -23 196 -2 217 -1 204 13 -13 12 -48 15 -196 15 -100 0
-181 4 -181 8 0 5 13 20 28 35 25 24 36 27 99 27 97 0 194 11 187 21 -3 5 -52
9 -110 9 -57 0 -104 4 -104 8 0 5 12 20 28 35 20 19 39 27 77 29 57 3 68 21
16 26 l-34 4 152 152 c109 109 152 159 149 172 -3 18 -17 19 -260 22 -247 2
-259 1 -278 -18z"/>
</g>
</svg>
