<?xml version="1.0" standalone="no"?>
<!DOCTYPE svg PUBLIC "-//W3C//DTD SVG 20010904//EN"
 "http://www.w3.org/TR/2001/REC-SVG-20010904/DTD/svg10.dtd">
<svg version="1.0" xmlns="http://www.w3.org/2000/svg"
 width="248.000000pt" height="250.000000pt" viewBox="0 0 248.000000 250.000000"
 preserveAspectRatio="xMidYMid meet">

<g transform="translate(0.000000,250.000000) scale(0.100000,-0.100000)"
fill="#000000" stroke="none">
<path d="M1065 2441 c-191 -19 -306 -63 -360 -139 -30 -43 -30 -46 -33 -189
-4 -138 -3 -145 17 -159 12 -9 21 -22 21 -30 0 -14 29 -15 228 -12 176 2 233
6 245 17 11 9 17 10 17 2 0 -6 9 -11 20 -11 17 0 20 -7 20 -40 l0 -40 -152 -1
c-276 -2 -387 -5 -394 -12 -4 -4 -13 -2 -20 4 -14 12 -50 -6 -59 -30 -4 -11 0
-10 19 2 22 15 25 15 42 -4 20 -22 15 -30 -35 -49 -31 -13 -35 -12 -53 11 -11
14 -21 19 -24 13 -6 -15 -56 -5 -51 10 2 6 8 11 13 11 5 0 14 4 21 8 6 4 14 1
16 -5 3 -8 6 -5 6 6 1 15 -4 17 -28 13 -17 -4 -31 -2 -33 4 -4 12 -91 14 -142
4 -58 -12 -68 -17 -62 -31 3 -8 1 -14 -4 -14 -6 0 -10 5 -10 10 0 17 -51 -15
-99 -62 -24 -24 -55 -66 -68 -94 -91 -199 -89 -568 6 -769 36 -76 71 -118 130
-153 43 -25 54 -27 189 -30 l142 -4 0 159 c0 141 3 165 24 226 13 37 20 67 15
67 -5 0 -9 -7 -9 -15 0 -21 -23 -19 -43 3 -16 17 -23 42 -13 42 3 0 16 -4 30
-10 22 -8 28 -6 38 10 7 11 22 20 33 20 11 0 39 15 61 33 37 29 79 51 139 72
24 9 58 12 147 15 43 1 71 7 79 16 15 19 30 18 23 -1 -5 -13 25 -15 238 -15
233 0 246 1 288 23 30 14 45 28 44 40 -2 13 1 15 10 7 9 -7 19 -3 34 13 l21
23 -27 -1 c-22 0 -28 5 -30 28 -2 15 -1 27 2 27 10 0 50 -24 57 -34 4 -5 12 1
19 14 7 12 8 20 3 17 -5 -3 -15 -2 -23 3 -12 7 -13 15 -3 40 12 33 8 38 -17
15 -15 -13 -20 -12 -50 10 -19 14 -29 25 -22 25 7 0 12 5 12 11 0 7 -11 9 -29
6 -24 -5 -31 -2 -36 14 -4 12 -2 26 3 31 13 13 52 0 52 -18 0 -17 5 -18 30 -1
17 10 22 9 29 -2 12 -18 42 -6 35 14 -4 8 0 17 9 21 20 7 11 31 -14 37 -10 3
-23 16 -28 30 -5 14 -21 27 -35 31 -19 5 -26 13 -26 32 0 14 -7 27 -17 31 -10
4 -22 12 -26 20 -4 7 -14 13 -22 13 -8 0 -19 9 -25 20 -9 16 -8 18 5 14 9 -4
15 -1 15 8 0 22 34 15 71 -13 35 -26 55 -31 52 -11 -4 19 21 14 34 -8 9 -14
10 -21 1 -26 -7 -4 -8 -3 -4 4 4 7 2 12 -4 12 -26 0 -20 -31 11 -59 18 -17 38
-43 45 -58 10 -23 13 15 13 222 l1 249 -27 23 c-14 13 -31 23 -36 23 -5 0 -15
7 -21 16 -17 22 -86 31 -86 10 0 -8 -9 -20 -20 -26 -19 -10 -19 -10 0 35 12
28 15 43 7 39 -6 -4 -5 1 4 12 28 34 32 44 12 37 -15 -5 -16 -3 -5 8 6 7 12
16 12 21 0 14 -57 37 -81 32 -17 -4 -20 -3 -11 4 10 7 4 11 -25 17 -91 17
-358 26 -468 16z m446 -40 c-7 -5 -10 -14 -7 -20 4 -6 3 -11 -3 -11 -20 0 -23
22 -5 35 11 7 21 11 24 9 2 -3 -2 -9 -9 -13z m-26 -101 c3 -5 -3 -10 -14 -10
-12 0 -21 5 -21 10 0 6 6 10 14 10 8 0 18 -4 21 -10z m75 0 c0 -5 -5 -10 -11
-10 -5 0 -7 5 -4 10 3 6 8 10 11 10 2 0 4 -4 4 -10z m-143 -42 c-3 -7 -5 -2
-5 12 0 14 2 19 5 13 2 -7 2 -19 0 -25z m184 15 c13 -17 13 -17 -6 -3 -11 8
-22 16 -24 17 -2 2 0 3 6 3 6 0 17 -8 24 -17z m-626 -15 c76 -60 59 -168 -31
-198 -76 -25 -159 59 -134 135 25 76 108 108 165 63z m545 12 c12 -8 11 -10
-7 -10 -13 0 -23 5 -23 10 0 13 11 13 30 0z m-10 -39 c0 -5 -6 -14 -14 -20
-10 -9 -15 -8 -19 3 -3 8 -3 17 0 20 9 9 33 7 33 -3z m50 -11 c0 -5 -7 -7 -15
-4 -8 4 -15 8 -15 10 0 2 7 4 15 4 8 0 15 -4 15 -10z m116 -46 c-3 -8 -10 -14
-16 -14 -14 0 -13 28 3 44 10 12 13 12 15 -1 2 -8 1 -21 -2 -29z m-566 -8 c0
-3 -7 -6 -15 -6 -9 0 -15 9 -15 21 0 18 2 19 15 5 8 -8 15 -17 15 -20z m480 5
c0 -12 -20 -25 -27 -18 -7 7 6 27 18 27 5 0 9 -4 9 -9z m73 -88 c2 -13 0 -26
-5 -29 -4 -3 -6 -10 -2 -15 3 -6 2 -18 -2 -27 -7 -15 -9 -23 -13 -37 0 -3 -10
3 -21 12 -14 13 -17 20 -8 30 7 9 7 13 0 13 -14 0 -9 44 6 63 18 21 40 16 45
-10z m-96 -70 c-11 -10 -58 -13 -52 -2 4 5 18 9 32 9 15 0 23 -3 20 -7z m-9
-36 c22 -13 22 -14 5 -29 -39 -34 -59 -39 -77 -19 -19 20 -6 38 17 25 6 -4 9
-4 5 0 -6 8 11 35 22 35 3 0 15 -5 28 -12z m146 7 c9 -3 14 -10 11 -14 -3 -5
4 -6 15 -3 32 8 23 -13 -12 -30 -49 -23 -85 -30 -92 -18 -4 6 -19 11 -34 11
-25 0 -26 1 -8 18 13 12 20 14 23 5 3 -10 10 -10 25 -2 11 6 27 8 35 5 12 -5
14 -1 10 14 -5 21 1 24 27 14z m-286 -61 c-2 -15 5 -19 40 -21 29 -2 42 -8 42
-18 0 -25 -26 -26 -69 -4 -45 22 -44 21 -35 44 8 22 26 20 22 -1z m-118 -37
c0 -8 17 -18 38 -24 24 -6 29 -10 15 -11 -30 -1 -73 19 -73 36 0 7 5 13 10 13
6 0 10 -6 10 -14z m250 -40 c0 -2 -3 -11 -6 -20 -9 -24 -33 -20 -27 4 4 16 33
30 33 16z m-1077 -58 c15 -12 15 -14 -8 -25 -14 -6 -25 -7 -25 -3 0 5 -3 15
-6 24 -7 19 15 21 39 4z m758 -4 c12 -14 11 -16 -5 -13 -11 2 -21 10 -24 17
-5 17 13 15 29 -4z m269 1 c0 -18 16 -20 23 -2 3 6 6 2 6 -10 1 -26 -11 -35
-33 -27 -17 7 -22 54 -6 54 6 0 10 -7 10 -15z m-736 -7 c-3 -4 3 -8 13 -9 11
0 13 -3 5 -6 -18 -7 -64 6 -57 17 3 5 14 8 25 7 10 -1 16 -5 14 -9z m-408 -56
c-9 -8 -46 20 -46 35 0 13 5 12 25 -7 14 -13 23 -25 21 -28z m451 6 c-3 -8 -6
-5 -6 6 -1 11 2 17 5 13 3 -3 4 -12 1 -19z m679 -2 c25 -19 8 -50 -30 -54 -24
-3 -26 0 -26 32 0 40 20 48 56 22z m-166 -12 c0 -17 -14 -18 -28 -1 -8 10 -6
13 9 14 10 1 19 -5 19 -13z m-700 -24 c0 -22 -1 -23 -24 -14 -13 5 -14 9 -5
20 16 20 29 17 29 -6z m780 0 c0 -5 -2 -10 -4 -10 -3 0 -8 5 -11 10 -3 6 -1
10 4 10 6 0 11 -4 11 -10z m-880 -10 c0 -5 -7 -10 -15 -10 -8 0 -15 5 -15 10
0 6 7 10 15 10 8 0 15 -4 15 -10z m53 -17 c-7 -2 -19 -2 -25 0 -7 3 -2 5 12 5
14 0 19 -2 13 -5z m817 1 c0 -12 -34 -33 -52 -34 -29 0 -20 28 10 33 15 2 30
5 35 6 4 0 7 -2 7 -5z m181 -24 c23 -13 25 -55 4 -64 -22 -8 -65 14 -65 34 0
17 18 40 33 40 4 0 17 -5 28 -10z m-87 -6 c25 -10 19 -51 -10 -71 -25 -16 -27
-16 -40 2 -15 20 -19 57 -7 68 8 9 36 9 57 1z m194 -19 c-3 -3 -9 2 -12 12 -6
14 -5 15 5 6 7 -7 10 -15 7 -18z m-1243 -35 c3 -5 2 -10 -4 -10 -5 0 -13 5
-16 10 -3 6 -2 10 4 10 5 0 13 -4 16 -10z m509 -16 c3 -8 2 -12 -4 -9 -6 3
-10 10 -10 16 0 14 7 11 14 -7z m712 -59 c-2 -7 0 -17 5 -22 5 -5 4 -16 -4
-27 -12 -17 -16 -17 -43 -4 -33 16 -34 42 -2 70 16 14 24 15 35 6 8 -6 12 -17
9 -23z m-1113 19 c13 -13 -3 -21 -32 -16 -17 2 -28 8 -25 13 6 10 48 12 57 3z
m943 -21 c-10 -10 -19 5 -10 18 6 11 8 11 12 0 2 -7 1 -15 -2 -18z m-768 5 c7
-7 12 -21 12 -31 0 -16 -2 -17 -16 -7 -24 21 -37 50 -21 50 7 0 18 -5 25 -12z
m-368 -8 c0 -5 -7 -10 -15 -10 -8 0 -15 5 -15 10 0 6 7 10 15 10 8 0 15 -4 15
-10z m820 0 c0 -5 -4 -10 -10 -10 -5 0 -10 5 -10 10 0 6 5 10 10 10 6 0 10 -4
10 -10z m186 -23 c1 -30 -10 -36 -20 -11 -10 26 -7 46 7 42 6 -3 12 -17 13
-31z m-874 9 c10 -7 36 -12 58 -11 32 2 43 -2 51 -17 6 -11 13 -17 16 -14 3 3
1 12 -6 20 -9 10 -9 15 1 19 20 7 58 -11 58 -27 0 -8 5 -16 11 -18 7 -2 9 -13
5 -25 -4 -14 -12 -20 -22 -16 -9 3 -14 -2 -14 -16 0 -14 -6 -21 -20 -21 -20 0
-26 -11 -13 -23 3 -4 12 -2 19 4 8 6 21 9 29 5 8 -3 15 0 15 7 0 8 3 8 9 -2 5
-8 14 -10 21 -6 10 6 12 2 7 -14 -4 -18 -2 -21 15 -16 10 4 31 4 45 0 19 -4
22 -9 14 -19 -7 -8 -10 -20 -9 -27 2 -8 -4 -14 -12 -14 -8 0 -18 -4 -21 -9
-10 -13 -51 14 -45 30 3 9 1 12 -4 9 -6 -3 -10 -15 -10 -26 0 -15 -7 -19 -36
-19 -29 0 -42 7 -70 39 -32 35 -39 38 -74 34 -36 -5 -39 -4 -45 23 -4 16 -8
34 -10 41 -2 6 2 19 9 29 11 14 11 22 0 42 -12 23 -9 52 5 52 3 0 14 -7 23
-14z m1078 9 c0 -2 -5 -16 -12 -30 -18 -39 -78 -29 -78 14 0 12 3 12 12 3 17
-17 47 -15 54 3 6 13 24 22 24 10z m-455 -40 c-31 -26 -45 -31 -45 -17 0 9 51
42 65 41 6 0 -3 -11 -20 -24z m-704 -2 c13 -16 12 -17 -3 -4 -10 7 -18 15 -18
17 0 8 8 3 21 -13z m799 -8 c0 -8 -4 -15 -9 -15 -13 0 -22 16 -14 24 11 11 23
6 23 -9z m-900 -5 c9 -6 17 -5 22 2 5 9 13 9 32 0 25 -11 37 -42 16 -42 -5 0
-10 7 -10 15 0 10 -6 12 -17 8 -38 -15 -42 -26 -21 -60 l19 -32 -24 -7 c-29
-7 -67 10 -67 30 0 8 9 16 20 19 20 5 29 37 10 37 -5 0 -10 9 -10 20 0 22 7
25 30 10z m-80 -22 c0 -6 -6 -5 -15 2 -8 7 -15 14 -15 16 0 2 7 1 15 -2 8 -4
15 -11 15 -16z m937 -32 c-11 -27 -27 -17 -27 16 0 30 1 31 16 16 9 -9 14 -24
11 -32z m-99 -12 c-9 -9 -22 -14 -30 -11 -8 3 -4 8 12 15 35 15 37 14 18 -4z
m-699 -15 c-15 -9 -32 -2 -24 11 3 5 13 6 21 3 12 -4 13 -8 3 -14z m394 2 c20
-20 -15 -21 -40 -1 l-27 21 29 -5 c15 -3 32 -9 38 -15z m133 9 c8 0 14 -4 14
-10 0 -5 -16 -10 -35 -10 -33 0 -43 8 -28 24 4 3 13 4 21 1 7 -3 20 -5 28 -5z
m-659 -171 c9 -18 9 -25 1 -28 -13 -4 -38 26 -38 47 0 20 23 9 37 -19z m128
-19 c-6 -9 -9 -9 -16 1 -10 17 0 34 13 21 6 -6 7 -16 3 -22z m225 -1 c0 -6 -4
-7 -10 -4 -5 3 -10 11 -10 16 0 6 5 7 10 4 6 -3 10 -11 10 -16z m-260 -54
c-14 -16 -40 -20 -40 -6 0 10 17 19 39 20 11 1 11 -2 1 -14z m200 -39 c0 -3
-4 -8 -10 -11 -5 -3 -10 -1 -10 4 0 6 5 11 10 11 6 0 10 -2 10 -4z m-50 -80
c0 -11 -19 -15 -25 -6 -3 5 1 10 9 10 9 0 16 -2 16 -4z m-80 -16 c0 -5 -2 -10
-4 -10 -3 0 -8 5 -11 10 -3 6 -1 10 4 10 6 0 11 -4 11 -10z"/>
<path d="M520 1386 c0 -2 7 -6 15 -10 8 -3 15 -1 15 4 0 6 -7 10 -15 10 -8 0
-15 -2 -15 -4z"/>
<path d="M1620 1839 c0 -5 5 -7 10 -4 6 3 10 8 10 11 0 2 -4 4 -10 4 -5 0 -10
-5 -10 -11z"/>
<path d="M1890 1761 l0 -68 48 8 c26 4 103 13 171 18 113 9 125 9 137 -7 12
-15 13 -14 8 8 -2 14 -2 19 2 13 3 -7 10 -13 15 -13 6 0 7 5 3 12 -5 7 -3 8 5
4 7 -5 10 -15 7 -23 -4 -9 -2 -11 5 -7 7 4 21 -4 31 -17 27 -33 11 -4 -25 48
-19 27 -49 52 -81 68 -46 23 -61 25 -188 25 l-138 0 0 -69z"/>
<path d="M590 1786 c0 -2 7 -9 15 -16 9 -7 15 -8 15 -2 0 5 -7 12 -15 16 -8 3
-15 4 -15 2z"/>
<path d="M1797 1623 c-10 -9 -9 -23 1 -23 5 0 9 7 9 15 0 17 -1 18 -10 8z"/>
<path d="M714 1078 c-3 -5 3 -8 13 -9 10 0 28 -2 40 -3 12 -1 28 1 34 5 6 4
-10 8 -36 11 -26 2 -49 0 -51 -4z"/>
<path d="M910 1041 c-6 -12 -18 -21 -27 -21 -14 0 -14 2 3 15 16 13 14 13 -15
0 -45 -22 -30 -33 54 -39 39 -3 59 -2 46 0 -13 3 -20 9 -15 12 5 4 0 17 -13
30 l-21 24 -12 -21z"/>
<path d="M2220 1040 c-12 -8 -11 -10 8 -10 12 0 22 5 22 10 0 13 -11 13 -30 0z"/>
<path d="M727 1021 c-43 -9 -60 -21 -29 -21 15 0 20 -5 17 -20 -2 -11 0 -20 6
-20 5 0 9 9 9 20 0 17 7 20 50 20 28 0 50 5 50 10 0 6 -6 10 -12 10 -7 0 -22
2 -33 4 -11 2 -37 1 -58 -3z"/>
<path d="M1888 993 c7 -3 16 -2 19 1 4 3 -2 6 -13 5 -11 0 -14 -3 -6 -6z"/>
<path d="M807 973 c5 -15 4 -16 -8 -7 -18 15 -49 14 -49 -1 0 -19 12 -26 27
-14 9 9 13 8 13 0 0 -9 5 -9 20 -1 11 6 25 8 30 5 15 -9 12 4 -4 21 -20 20
-37 18 -29 -3z"/>
<path d="M1166 961 c-9 -14 12 -17 109 -19 85 -1 88 -1 60 13 -33 16 -161 20
-169 6z"/>
<path d="M1438 943 c-21 -2 -38 -7 -38 -11 0 -10 -474 -9 -481 2 -4 4 -15 4
-25 -2 -11 -5 -65 -9 -122 -8 l-102 1 0 -177 0 -178 25 0 c14 0 25 5 25 10 0
6 7 10 15 10 18 0 52 18 83 45 20 17 22 17 16 2 -3 -9 -10 -17 -14 -17 -4 0
-10 -9 -13 -20 -4 -18 -2 -20 16 -14 37 11 42 10 41 -8 -1 -10 1 -18 5 -18 18
0 61 26 61 37 0 7 12 12 28 11 15 -1 51 2 81 7 33 5 52 4 48 -1 -7 -12 100 -6
125 7 10 5 18 21 18 34 l0 25 133 1 c329 1 400 2 367 6 -63 6 -80 13 -80 31
-1 29 -44 54 -74 42 -14 -5 -26 -17 -26 -26 0 -11 -6 -15 -20 -11 -11 3 -20 1
-20 -3 0 -5 8 -11 18 -13 9 -2 4 -4 -13 -4 -16 0 -78 -3 -138 -6 -59 -3 -105
-1 -102 3 10 16 -13 20 -45 8 -25 -8 -38 -8 -51 1 -22 13 -59 15 -59 2 0 -5
10 -12 23 -14 12 -2 -3 -4 -33 -4 -30 0 -45 2 -32 4 30 6 28 23 -2 23 -32 0
-57 10 -51 20 3 5 -4 6 -15 3 -14 -4 -20 0 -20 11 0 9 -5 16 -11 16 -5 0 -7
-5 -3 -11 4 -8 -1 -9 -15 -4 -18 5 -24 2 -28 -14 -5 -21 -18 -27 -27 -13 -2 4
-19 9 -36 10 -21 2 -29 -1 -25 -9 4 -6 -2 -5 -14 3 -19 12 -20 13 -4 16 10 2
42 10 71 19 47 13 51 16 36 27 -12 9 -30 10 -66 4 -46 -8 -69 -6 -57 7 3 2 37
8 77 11 61 6 72 4 78 -10 4 -11 18 -16 43 -16 25 0 32 3 22 9 -8 5 -20 7 -27
4 -6 -2 -15 0 -19 6 -4 8 8 9 37 6 23 -3 45 -11 49 -17 6 -9 11 -9 21 0 11 9
17 9 26 0 13 -13 339 -21 346 -9 2 3 -12 7 -32 9 -19 1 -40 6 -46 11 -10 8
-115 19 -183 21 -13 0 -23 5 -23 11 0 7 13 9 38 5 l37 -5 -35 13 -35 13 79 7
c43 5 133 8 200 8 119 0 122 0 156 29 39 33 35 36 -17 14 -36 -15 -83 -20 -83
-9 0 4 8 13 18 20 15 12 12 13 -23 12 -22 -1 -57 -3 -77 -5z m-133 -143 l20
-9 -20 0 c-11 0 -27 4 -35 9 -13 9 -13 10 0 9 8 0 24 -4 35 -9z m-600 -70 c3
-5 -1 -10 -10 -10 -9 0 -13 5 -10 10 3 6 8 10 10 10 2 0 7 -4 10 -10z m110
-20 c-11 -5 -27 -9 -35 -9 -13 -1 -13 0 0 9 8 5 24 9 35 9 l20 0 -20 -9z m95
-5 c0 -10 -10 -15 -27 -15 -16 0 -39 -3 -53 -5 -17 -4 -12 1 15 15 48 24 65
25 65 5z m127 -11 c-3 -3 -12 -4 -19 -1 -8 3 -5 6 6 6 11 1 17 -2 13 -5z m-97
-46 c0 -4 -4 -8 -9 -8 -6 0 -12 4 -15 8 -3 5 1 9 9 9 8 0 15 -4 15 -9z"/>
<path d="M2297 899 c7 -7 15 -10 18 -7 3 3 -2 9 -12 12 -14 6 -15 5 -6 -5z"/>
<path d="M2205 891 c-10 -17 12 -21 25 -6 10 12 10 15 -3 15 -9 0 -18 -4 -22
-9z"/>
<path d="M2075 860 c3 -5 8 -10 11 -10 2 0 4 5 4 10 0 6 -5 10 -11 10 -5 0 -7
-4 -4 -10z"/>
<path d="M2286 845 c4 -8 16 -14 28 -14 16 1 17 2 4 6 -10 2 -18 9 -18 14 0 5
-4 9 -10 9 -5 0 -7 -7 -4 -15z"/>
<path d="M2215 810 c3 -5 16 -10 28 -9 21 0 21 1 2 9 -28 12 -37 12 -30 0z"/>
<path d="M2163 757 c42 -5 77 -13 77 -17 0 -5 -10 -6 -22 -2 -16 4 -19 2 -13
-9 7 -11 5 -11 -10 1 -14 11 -19 12 -22 2 -3 -6 -10 -9 -16 -5 -6 4 -30 8 -52
10 -29 3 -36 1 -25 -7 8 -5 25 -10 38 -10 26 0 29 -15 5 -29 -16 -9 -16 -10 3
-11 12 0 24 6 27 14 3 7 16 13 29 12 31 -3 80 22 72 36 -4 6 -3 8 4 4 6 -3 13
-2 17 4 4 6 -9 10 -33 10 -21 0 -66 2 -98 4 -47 3 -43 1 19 -7z"/>
<path d="M1165 750 c-3 -5 -1 -10 5 -10 6 0 8 -4 5 -10 -3 -5 1 -10 9 -10 20
0 21 14 2 29 -10 8 -16 9 -21 1z"/>
<path d="M1053 743 c9 -2 23 -2 30 0 6 3 -1 5 -18 5 -16 0 -22 -2 -12 -5z"/>
<path d="M1408 743 c7 -3 16 -2 19 1 4 3 -2 6 -13 5 -11 0 -14 -3 -6 -6z"/>
<path d="M1448 743 c7 -3 16 -2 19 1 4 3 -2 6 -13 5 -11 0 -14 -3 -6 -6z"/>
<path d="M2040 730 c0 -5 5 -10 11 -10 5 0 7 5 4 10 -3 6 -8 10 -11 10 -2 0
-4 -4 -4 -10z"/>
<path d="M1369 719 c-10 -6 -7 -9 14 -9 29 0 35 5 14 13 -8 3 -20 1 -28 -4z"/>
<path d="M1468 723 c7 -3 16 -2 19 1 4 3 -2 6 -13 5 -11 0 -14 -3 -6 -6z"/>
<path d="M1428 713 c7 -3 16 -2 19 1 4 3 -2 6 -13 5 -11 0 -14 -3 -6 -6z"/>
<path d="M1995 695 c-19 -15 -19 -15 10 -13 17 2 29 7 28 13 -3 16 -18 16 -38
0z"/>
<path d="M1855 690 c-15 -6 -7 -9 29 -9 27 -1 47 1 45 3 -11 9 -56 13 -74 6z"/>
<path d="M1778 683 c6 -2 18 -2 25 0 6 3 1 5 -13 5 -14 0 -19 -2 -12 -5z"/>
<path d="M1380 520 c0 -5 5 -10 10 -10 6 0 10 5 10 10 0 6 -4 10 -10 10 -5 0
-10 -4 -10 -10z"/>
<path d="M674 390 c2 -49 11 -98 20 -115 18 -36 78 -94 126 -123 61 -36 193
-77 284 -88 48 -6 96 4 77 15 -7 4 -13 15 -15 23 -1 9 -7 22 -13 29 -6 8 -12
19 -14 24 -1 6 -12 8 -23 7 -12 -2 -18 -1 -15 2 5 6 40 14 69 16 9 0 6 6 -10
14 -20 12 -28 12 -43 1 -11 -8 -26 -11 -35 -8 -10 4 -13 2 -8 -5 3 -6 2 -13
-4 -17 -5 -3 -10 2 -10 12 0 11 -5 24 -10 29 -8 8 -6 15 5 24 21 17 19 25 -7
27 -16 2 -19 0 -9 -6 7 -5 9 -11 5 -14 -5 -3 -15 1 -22 9 -7 8 -8 14 -2 14 5
0 10 9 10 20 0 11 -5 20 -11 20 -5 0 -7 -4 -4 -10 7 -11 -27 -1 -35 10 -9 13
-53 23 -46 11 15 -24 -14 -10 -30 15 -13 19 -19 22 -25 12 -7 -10 -9 -10 -9 0
0 6 -7 12 -15 12 -13 0 -14 4 -5 20 14 25 26 26 33 1 3 -12 12 -19 23 -17 11
2 14 1 7 -1 -13 -5 -6 -33 9 -33 5 0 6 5 2 12 -5 8 -2 9 10 5 14 -6 17 -3 12
8 -3 9 -2 13 3 10 5 -3 12 -1 15 4 3 4 -16 18 -43 29 -42 17 -51 18 -63 6 -16
-16 -62 -28 -53 -14 3 4 -1 15 -9 23 -8 8 -12 18 -8 22 4 4 -4 4 -17 0 -18 -5
-22 -4 -16 5 5 8 4 11 -3 6 -6 -3 -17 1 -26 9 -13 13 -15 13 -22 -7 -6 -21 -7
-21 -20 8 -13 27 -14 22 -10 -56z m66 31 c0 -6 -4 -13 -10 -16 -5 -3 -10 1
-10 9 0 9 5 16 10 16 6 0 10 -4 10 -9z m153 -138 c-7 -2 -19 -2 -25 0 -7 3 -2
5 12 5 14 0 19 -2 13 -5z m97 -15 c0 -6 -6 -5 -15 2 -8 7 -15 14 -15 16 0 2 7
1 15 -2 8 -4 15 -11 15 -16z m-253 -4 c-3 -3 -12 -4 -19 -1 -8 3 -5 6 6 6 11
1 17 -2 13 -5z m20 -20 c-3 -3 -12 -4 -19 -1 -8 3 -5 6 6 6 11 1 17 -2 13 -5z
m38 -13 c3 -5 1 -12 -5 -16 -5 -3 -10 1 -10 9 0 18 6 21 15 7z m105 -26 c0 -2
-9 -3 -19 -2 -11 0 -18 5 -15 9 4 6 34 0 34 -7z m144 -29 c-5 -13 -34 -31 -34
-21 0 5 30 35 35 35 3 0 2 -6 -1 -14z m-34 0 c0 -11 -19 -15 -25 -6 -3 5 1 10
9 10 9 0 16 -2 16 -4z m-70 -36 c0 -5 -2 -10 -4 -10 -3 0 -8 5 -11 10 -3 6 -1
10 4 10 6 0 11 -4 11 -10z m149 -3 c-9 -7 -14 -19 -11 -27 3 -8 1 -12 -3 -8
-5 4 -13 4 -20 -2 -15 -12 -55 -1 -55 16 0 8 7 14 15 14 8 0 15 -4 15 -10 0
-5 7 -10 16 -10 10 0 14 5 10 16 -3 8 -2 13 2 10 4 -2 14 -1 22 5 22 13 28 10
9 -4z m-99 -7 c0 -5 -4 -10 -10 -10 -5 0 -10 5 -10 10 0 6 5 10 10 10 6 0 10
-4 10 -10z m145 0 c3 -5 1 -10 -4 -10 -6 0 -11 5 -11 10 0 6 2 10 4 10 3 0 8
-4 11 -10z"/>
<path d="M810 400 c0 -5 6 -10 14 -10 8 0 18 5 21 10 3 6 -3 10 -14 10 -12 0
-21 -4 -21 -10z"/>
<path d="M1200 389 c0 -5 7 -9 15 -9 8 0 18 0 22 -1 4 0 9 3 10 8 2 4 -8 9
-22 9 -14 1 -25 -2 -25 -7z"/>
<path d="M1306 381 c-3 -5 1 -11 9 -15 9 -3 15 0 15 9 0 16 -16 20 -24 6z"/>
<path d="M1138 373 c7 -3 16 -2 19 1 4 3 -2 6 -13 5 -11 0 -14 -3 -6 -6z"/>
<path d="M996 349 c4 -8 0 -9 -15 -4 -13 4 -21 2 -21 -6 0 -8 10 -9 31 -5 17
3 35 6 40 6 5 0 9 5 9 10 0 6 -12 10 -26 10 -16 0 -23 -4 -18 -11z"/>
<path d="M1133 315 c-42 -12 -43 -29 -1 -21 35 7 42 11 37 23 -2 4 -19 4 -36
-2z"/>
<path d="M1156 280 c-26 -28 -28 -29 -52 -14 -13 9 -24 12 -24 6 0 -6 6 -12
12 -14 9 -3 8 -9 -5 -22 -18 -19 -23 -31 -8 -22 5 4 12 0 14 -6 4 -10 6 -10 6
0 1 7 6 10 12 7 6 -4 13 2 16 14 3 12 10 21 17 21 12 1 51 49 44 55 -2 2 -16
-9 -32 -25z"/>
<path d="M1040 292 c0 -12 19 -26 26 -19 2 2 -2 10 -11 17 -9 8 -15 8 -15 2z"/>
<path d="M1210 250 c0 -5 12 -10 26 -10 14 0 23 4 19 10 -3 6 -15 10 -26 10
-10 0 -19 -4 -19 -10z"/>
<path d="M1150 225 c0 -10 29 -24 34 -17 3 6 -3 12 -14 15 -11 3 -20 4 -20 2z"/>
<path d="M1247 189 c6 -23 9 -24 16 -5 3 8 0 17 -7 19 -10 4 -12 -1 -9 -14z"/>
<path d="M1300 192 c0 -7 -7 -12 -15 -12 -18 0 -38 -36 -29 -52 5 -7 0 -9 -14
-6 -12 4 -25 1 -29 -4 -3 -6 -2 -8 4 -5 12 7 36 -40 28 -54 -4 -5 -2 -9 3 -9
15 0 22 28 9 33 -9 3 -8 8 2 18 9 9 11 9 7 2 -9 -16 -1 -16 26 -2 23 12 19 1
-11 -35 -11 -14 -12 -17 -2 -11 8 4 28 8 45 9 26 1 31 5 34 29 2 19 -1 27 -10
25 -8 -2 -12 5 -11 20 2 13 -6 33 -17 44 -11 12 -20 16 -20 10z m-4 -58 c-9
-9 -20 -14 -23 -10 -4 3 2 13 13 20 25 18 31 12 10 -10z m44 -54 c0 -5 -8 -10
-17 -10 -15 0 -16 2 -3 10 19 12 20 12 20 0z"/>
<path d="M1196 178 c3 -4 -2 -8 -10 -8 -8 0 -18 -5 -22 -12 -5 -8 -2 -9 9 -5
10 3 17 2 17 -3 0 -5 -8 -11 -17 -13 -17 -4 -17 -5 -1 -6 11 -1 15 -6 12 -16
-4 -8 -1 -15 5 -15 11 0 15 18 12 51 -1 9 9 21 21 27 23 11 23 11 -4 9 -15 -1
-24 -5 -22 -9z"/>
<path d="M1220 155 c0 -9 5 -15 11 -13 6 2 11 8 11 13 0 5 -5 11 -11 13 -6 2
-11 -4 -11 -13z"/>
<path d="M1403 133 c-9 -15 -13 -16 -24 -5 -7 6 -18 12 -23 12 -6 0 -1 -7 11
-15 23 -16 43 -16 55 0 4 5 10 6 14 2 10 -10 -17 -39 -32 -33 -8 3 -18 -3 -24
-13 -9 -18 -7 -18 36 -5 26 8 50 12 54 9 4 -3 10 2 14 10 4 10 -1 15 -15 15
-14 0 -19 5 -16 14 3 8 -1 17 -9 20 -23 9 -28 8 -41 -11z m47 -33 c0 -5 -5
-10 -11 -10 -5 0 -7 5 -4 10 3 6 8 10 11 10 2 0 4 -4 4 -10z"/>
<path d="M1510 139 c0 -5 5 -7 10 -4 6 3 10 8 10 11 0 2 -4 4 -10 4 -5 0 -10
-5 -10 -11z"/>
<path d="M1535 110 c-3 -5 -1 -10 4 -10 6 0 11 5 11 10 0 6 -2 10 -4 10 -3 0
-8 -4 -11 -10z"/>
<path d="M1200 70 c0 -5 5 -10 10 -10 6 0 10 5 10 10 0 6 -4 10 -10 10 -5 0
-10 -4 -10 -10z"/>
</g>
</svg>
