<?xml version="1.0" standalone="no"?>
<!DOCTYPE svg PUBLIC "-//W3C//DTD SVG 20010904//EN"
 "http://www.w3.org/TR/2001/REC-SVG-20010904/DTD/svg10.dtd">
<svg version="1.0" xmlns="http://www.w3.org/2000/svg"
 width="280.000000pt" height="280.000000pt" viewBox="0 0 280.000000 280.000000"
 preserveAspectRatio="xMidYMid meet">

<g transform="translate(0.000000,280.000000) scale(0.100000,-0.100000)"
fill="#000000" stroke="none">
<path d="M871 2644 c-92 -23 -230 -89 -288 -137 -34 -28 -133 -126 -153 -152
-20 -26 -69 -110 -92 -158 -10 -20 -30 -80 -43 -132 l-25 -95 0 -571 c0 -542
1 -575 20 -651 26 -100 45 -147 88 -222 44 -75 54 -88 127 -161 73 -73 86 -83
161 -127 76 -44 124 -63 227 -88 80 -20 107 -21 528 -18 l444 3 87 28 c140 43
229 98 338 208 80 80 103 110 142 190 92 183 98 236 98 839 0 603 -6 656 -98
839 -38 75 -64 112 -132 181 -123 126 -225 185 -387 225 -96 24 -105 25 -523
24 -414 -1 -427 -1 -519 -25z"/>
</g>
</svg>
