<svg id="svg" version="1.1" xmlns="http://www.w3.org/2000/svg" xmlns:xlink="http://www.w3.org/1999/xlink" width="400" height="400" viewBox="0, 0, 400,400"><g id="svgg"><path id="path0" d="M0.000 200.000 L 0.000 400.000 200.000 400.000 L 400.000 400.000 400.000 200.000 L 400.000 0.000 200.000 0.000 L 0.000 0.000 0.000 200.000 M367.367 33.043 C 367.937 33.262,368.000 36.647,368.000 67.243 L 368.000 101.200 334.600 101.200 L 301.200 101.200 301.200 133.800 L 301.200 166.400 334.600 166.400 L 368.000 166.400 368.000 233.800 L 368.000 301.200 334.600 301.200 L 301.200 301.200 301.200 334.601 L 301.200 368.002 200.500 367.901 L 99.800 367.800 99.698 334.500 L 99.595 301.200 66.440 301.200 C 36.577 301.200,33.261 301.137,33.043 300.567 C 32.725 299.740,32.725 167.860,33.043 167.033 C 33.261 166.463,36.577 166.400,66.443 166.400 L 99.600 166.400 99.600 133.800 L 99.600 101.200 66.443 101.200 C 36.577 101.200,33.261 101.137,33.043 100.567 C 32.540 99.258,32.771 33.789,33.280 33.280 C 33.789 32.771,366.044 32.535,367.367 33.043 M168.000 133.800 L 168.000 166.400 200.400 166.400 L 232.800 166.400 232.800 133.800 L 232.800 101.200 200.400 101.200 L 168.000 101.200 168.000 133.800 M101.200 233.800 L 101.200 299.600 200.400 299.600 L 299.600 299.600 299.600 233.800 L 299.600 168.000 267.200 168.000 L 234.800 168.000 234.800 200.951 C 234.800 228.238,234.707 233.980,234.256 234.353 C 233.860 234.682,224.616 234.777,200.156 234.702 L 166.600 234.600 166.498 201.300 L 166.395 168.000 133.798 168.000 L 101.200 168.000 101.200 233.800 " stroke="none" fill="#f4f4f4" fill-rule="evenodd"></path><path id="path1" d="M33.384 33.700 C 33.279 33.975,33.240 49.140,33.297 67.400 L 33.400 100.600 66.600 100.800 L 99.800 101.000 99.800 133.800 L 99.800 166.600 66.600 166.800 L 33.400 167.000 33.400 233.800 L 33.400 300.600 66.600 300.800 L 99.800 301.000 100.000 334.200 L 100.200 367.400 200.498 367.501 L 300.795 367.602 300.898 334.301 L 301.000 301.000 334.300 300.898 L 367.600 300.795 367.600 233.800 L 367.600 166.805 334.300 166.702 L 301.000 166.600 301.000 133.800 L 301.000 101.000 334.302 100.898 L 367.605 100.795 367.502 67.098 L 367.400 33.400 200.488 33.300 C 67.168 33.219,33.537 33.300,33.384 33.700 M233.200 133.802 L 233.200 166.805 200.500 166.702 L 167.800 166.600 167.697 134.200 C 167.640 116.380,167.679 101.575,167.784 101.300 C 167.935 100.906,174.866 100.800,200.587 100.800 L 233.200 100.800 233.200 133.802 M166.800 201.000 L 167.000 234.200 200.600 234.200 L 234.200 234.200 234.302 200.900 L 234.405 167.600 267.202 167.600 L 300.000 167.600 300.000 233.801 L 300.000 300.002 200.500 299.901 L 101.000 299.800 100.897 234.200 C 100.841 198.120,100.881 168.374,100.986 168.098 C 101.137 167.699,107.930 167.616,133.888 167.698 L 166.600 167.800 166.800 201.000 " stroke="none" fill="#cc6464" fill-rule="evenodd"></path><path id="path2" d="M33.280 33.280 C 32.771 33.789,32.540 99.258,33.043 100.567 C 33.261 101.137,36.577 101.200,66.443 101.200 L 99.600 101.200 99.600 133.800 L 99.600 166.400 66.443 166.400 C 36.577 166.400,33.261 166.463,33.043 167.033 C 32.725 167.860,32.725 299.740,33.043 300.567 C 33.261 301.137,36.577 301.200,66.440 301.200 L 99.595 301.200 99.698 334.500 L 99.800 367.800 200.500 367.901 L 301.200 368.002 301.200 334.601 L 301.200 301.200 334.600 301.200 L 368.000 301.200 368.000 233.800 L 368.000 166.400 334.600 166.400 L 301.200 166.400 301.200 133.800 L 301.200 101.200 334.600 101.200 L 368.000 101.200 368.000 67.243 C 368.000 36.647,367.937 33.262,367.367 33.043 C 366.044 32.535,33.789 32.771,33.280 33.280 M367.502 67.098 L 367.605 100.795 334.302 100.898 L 301.000 101.000 301.000 133.800 L 301.000 166.600 334.300 166.702 L 367.600 166.805 367.600 233.800 L 367.600 300.795 334.300 300.898 L 301.000 301.000 300.898 334.301 L 300.795 367.602 200.498 367.501 L 100.200 367.400 100.000 334.200 L 99.800 301.000 66.600 300.800 L 33.400 300.600 33.400 233.800 L 33.400 167.000 66.600 166.800 L 99.800 166.600 99.800 133.800 L 99.800 101.000 66.600 100.800 L 33.400 100.600 33.297 67.400 C 33.240 49.140,33.279 33.975,33.384 33.700 C 33.537 33.300,67.168 33.219,200.488 33.300 L 367.400 33.400 367.502 67.098 M167.784 101.300 C 167.679 101.575,167.640 116.380,167.697 134.200 L 167.800 166.600 200.500 166.702 L 233.200 166.805 233.200 133.802 L 233.200 100.800 200.587 100.800 C 174.866 100.800,167.935 100.906,167.784 101.300 M232.800 133.800 L 232.800 166.400 200.400 166.400 L 168.000 166.400 168.000 133.800 L 168.000 101.200 200.400 101.200 L 232.800 101.200 232.800 133.800 M100.986 168.098 C 100.881 168.374,100.841 198.120,100.897 234.200 L 101.000 299.800 200.500 299.901 L 300.000 300.002 300.000 233.801 L 300.000 167.600 267.202 167.600 L 234.405 167.600 234.302 200.900 L 234.200 234.200 200.600 234.200 L 167.000 234.200 166.800 201.000 L 166.600 167.800 133.888 167.698 C 107.930 167.616,101.137 167.699,100.986 168.098 M166.498 201.300 L 166.600 234.600 200.156 234.702 C 224.616 234.777,233.860 234.682,234.256 234.353 C 234.707 233.980,234.800 228.238,234.800 200.951 L 234.800 168.000 267.200 168.000 L 299.600 168.000 299.600 233.800 L 299.600 299.600 200.400 299.600 L 101.200 299.600 101.200 233.800 L 101.200 168.000 133.798 168.000 L 166.395 168.000 166.498 201.300 " stroke="none" fill="#e0d0f8" fill-rule="evenodd"></path><path id="path3" d="M33.280 33.280 C 32.771 33.789,32.540 99.258,33.043 100.567 C 33.261 101.137,36.577 101.200,66.443 101.200 L 99.600 101.200 99.600 133.800 L 99.600 166.400 66.443 166.400 C 36.577 166.400,33.261 166.463,33.043 167.033 C 32.725 167.860,32.725 299.740,33.043 300.567 C 33.261 301.137,36.577 301.200,66.440 301.200 L 99.595 301.200 99.698 334.500 L 99.800 367.800 200.500 367.901 L 301.200 368.002 301.200 334.601 L 301.200 301.200 334.600 301.200 L 368.000 301.200 368.000 233.800 L 368.000 166.400 334.600 166.400 L 301.200 166.400 301.200 133.800 L 301.200 101.200 334.600 101.200 L 368.000 101.200 368.000 67.243 C 368.000 36.647,367.937 33.262,367.367 33.043 C 366.044 32.535,33.789 32.771,33.280 33.280 M367.502 67.098 L 367.605 100.795 334.302 100.898 L 301.000 101.000 301.000 133.800 L 301.000 166.600 334.300 166.702 L 367.600 166.805 367.600 233.800 L 367.600 300.795 334.300 300.898 L 301.000 301.000 300.898 334.301 L 300.795 367.602 200.498 367.501 L 100.200 367.400 100.000 334.200 L 99.800 301.000 66.600 300.800 L 33.400 300.600 33.400 233.800 L 33.400 167.000 66.600 166.800 L 99.800 166.600 99.800 133.800 L 99.800 101.000 66.600 100.800 L 33.400 100.600 33.297 67.400 C 33.240 49.140,33.279 33.975,33.384 33.700 C 33.537 33.300,67.168 33.219,200.488 33.300 L 367.400 33.400 367.502 67.098 M167.784 101.300 C 167.679 101.575,167.640 116.380,167.697 134.200 L 167.800 166.600 200.500 166.702 L 233.200 166.805 233.200 133.802 L 233.200 100.800 200.587 100.800 C 174.866 100.800,167.935 100.906,167.784 101.300 M232.800 133.800 L 232.800 166.400 200.400 166.400 L 168.000 166.400 168.000 133.800 L 168.000 101.200 200.400 101.200 L 232.800 101.200 232.800 133.800 M100.986 168.098 C 100.881 168.374,100.841 198.120,100.897 234.200 L 101.000 299.800 200.500 299.901 L 300.000 300.002 300.000 233.801 L 300.000 167.600 267.202 167.600 L 234.405 167.600 234.302 200.900 L 234.200 234.200 200.600 234.200 L 167.000 234.200 166.800 201.000 L 166.600 167.800 133.888 167.698 C 107.930 167.616,101.137 167.699,100.986 168.098 M166.498 201.300 L 166.600 234.600 200.156 234.702 C 224.616 234.777,233.860 234.682,234.256 234.353 C 234.707 233.980,234.800 228.238,234.800 200.951 L 234.800 168.000 267.200 168.000 L 299.600 168.000 299.600 233.800 L 299.600 299.600 200.400 299.600 L 101.200 299.600 101.200 233.800 L 101.200 168.000 133.798 168.000 L 166.395 168.000 166.498 201.300 " stroke="none" fill="#e0d0f8" fill-rule="evenodd"></path><path id="path4" d="M33.280 33.280 C 32.771 33.789,32.540 99.258,33.043 100.567 C 33.261 101.137,36.577 101.200,66.443 101.200 L 99.600 101.200 99.600 133.800 L 99.600 166.400 66.443 166.400 C 36.577 166.400,33.261 166.463,33.043 167.033 C 32.725 167.860,32.725 299.740,33.043 300.567 C 33.261 301.137,36.577 301.200,66.440 301.200 L 99.595 301.200 99.698 334.500 L 99.800 367.800 200.500 367.901 L 301.200 368.002 301.200 334.601 L 301.200 301.200 334.600 301.200 L 368.000 301.200 368.000 233.800 L 368.000 166.400 334.600 166.400 L 301.200 166.400 301.200 133.800 L 301.200 101.200 334.600 101.200 L 368.000 101.200 368.000 67.243 C 368.000 36.647,367.937 33.262,367.367 33.043 C 366.044 32.535,33.789 32.771,33.280 33.280 M367.502 67.098 L 367.605 100.795 334.302 100.898 L 301.000 101.000 301.000 133.800 L 301.000 166.600 334.300 166.702 L 367.600 166.805 367.600 233.800 L 367.600 300.795 334.300 300.898 L 301.000 301.000 300.898 334.301 L 300.795 367.602 200.498 367.501 L 100.200 367.400 100.000 334.200 L 99.800 301.000 66.600 300.800 L 33.400 300.600 33.400 233.800 L 33.400 167.000 66.600 166.800 L 99.800 166.600 99.800 133.800 L 99.800 101.000 66.600 100.800 L 33.400 100.600 33.297 67.400 C 33.240 49.140,33.279 33.975,33.384 33.700 C 33.537 33.300,67.168 33.219,200.488 33.300 L 367.400 33.400 367.502 67.098 M167.784 101.300 C 167.679 101.575,167.640 116.380,167.697 134.200 L 167.800 166.600 200.500 166.702 L 233.200 166.805 233.200 133.802 L 233.200 100.800 200.587 100.800 C 174.866 100.800,167.935 100.906,167.784 101.300 M232.800 133.800 L 232.800 166.400 200.400 166.400 L 168.000 166.400 168.000 133.800 L 168.000 101.200 200.400 101.200 L 232.800 101.200 232.800 133.800 M100.986 168.098 C 100.881 168.374,100.841 198.120,100.897 234.200 L 101.000 299.800 200.500 299.901 L 300.000 300.002 300.000 233.801 L 300.000 167.600 267.202 167.600 L 234.405 167.600 234.302 200.900 L 234.200 234.200 200.600 234.200 L 167.000 234.200 166.800 201.000 L 166.600 167.800 133.888 167.698 C 107.930 167.616,101.137 167.699,100.986 168.098 M166.498 201.300 L 166.600 234.600 200.156 234.702 C 224.616 234.777,233.860 234.682,234.256 234.353 C 234.707 233.980,234.800 228.238,234.800 200.951 L 234.800 168.000 267.200 168.000 L 299.600 168.000 299.600 233.800 L 299.600 299.600 200.400 299.600 L 101.200 299.600 101.200 233.800 L 101.200 168.000 133.798 168.000 L 166.395 168.000 166.498 201.300 " stroke="none" fill="#e0d0f8" fill-rule="evenodd"></path></g></svg>