<?xml version="1.0" standalone="no"?>
<!DOCTYPE svg PUBLIC "-//W3C//DTD SVG 20010904//EN"
 "http://www.w3.org/TR/2001/REC-SVG-20010904/DTD/svg10.dtd">
<svg version="1.0" xmlns="http://www.w3.org/2000/svg"
 width="48.000000pt" height="48.000000pt" viewBox="0 0 48.000000 48.000000"
 preserveAspectRatio="xMidYMid meet">

<g transform="translate(0.000000,48.000000) scale(0.100000,-0.100000)"
fill="#000000" stroke="none">
<path d="M180 418 c-11 -12 -20 -32 -20 -45 0 -13 -6 -23 -13 -23 -22 0 -47
-34 -47 -63 0 -18 -5 -27 -15 -27 -9 0 -27 -11 -40 -25 -20 -19 -25 -34 -25
-73 0 -59 17 -85 56 -84 16 0 36 -6 44 -13 31 -27 65 -28 96 -1 29 24 30 24
42 5 17 -26 67 -25 85 2 13 18 18 19 37 9 45 -24 101 53 85 117 -8 34 -41 63
-70 63 -19 0 -25 5 -25 20 0 27 -43 70 -70 70 -13 0 -20 7 -20 19 0 26 -38 71
-60 71 -11 0 -28 -10 -40 -22z m68 -30 c6 -7 13 -30 17 -50 6 -33 10 -36 26
-28 26 14 59 -20 59 -60 0 -28 2 -30 21 -19 17 9 25 7 45 -12 28 -26 31 -65 8
-97 -19 -27 -40 -28 -56 -3 -11 18 -13 17 -33 -13 -28 -42 -51 -44 -73 -7 -17
32 -32 40 -32 19 0 -19 -32 -48 -53 -48 -25 0 -57 27 -57 48 0 13 -3 13 -18
-1 -24 -22 -39 -21 -52 2 -28 53 5 111 62 111 25 0 29 3 20 12 -7 7 -12 22
-12 34 0 27 22 48 37 33 7 -7 12 1 16 26 3 20 11 43 18 51 14 17 43 18 57 2z"/>
</g>
</svg>
